<svg width="40" height="40" viewBox="0 0 40 40" fill="none" xmlns="http://www.w3.org/2000/svg">
<g clip-path="url(#clip0_41_398)">
<path d="M6.03691 9.27404H15.312C17.5832 9.27404 19.4309 7.42631 19.4309 5.1551C19.4309 2.88389 17.5832 1.03616 15.312 1.03616H13.5385C11.8648 1.03616 10.9538 2.07524 10.5577 2.94428H6.03691C5.19263 2.94428 4.39801 3.27324 3.79842 3.87173C3.20103 4.4703 2.87207 5.26484 2.87207 6.1092C2.87199 7.85429 4.29182 9.27404 6.03691 9.27404ZM4.91317 4.98656C5.21399 4.68629 5.61312 4.52091 6.03684 4.52091H11.1193C11.4942 4.52091 11.8171 4.25698 11.8918 3.88962C11.9024 3.83752 12.1672 2.61279 13.5384 2.61279H15.3119C16.7138 2.61279 17.8542 3.75324 17.8542 5.1551C17.8542 6.55696 16.7138 7.69742 15.3119 7.69742H6.03691C5.16118 7.69742 4.4487 6.98494 4.4487 6.1092C4.44862 5.6854 4.61401 5.28628 4.91317 4.98656Z" fill="#FF5445"/>
<path d="M29.1637 11.5602H34.5697C35.7682 11.5602 36.7432 10.5378 36.7432 9.28124C36.7432 8.68417 36.5245 8.1195 36.1262 7.68995C35.7132 7.24652 35.1604 7.0023 34.5697 7.0023H32.1509C31.8443 6.41966 31.2359 5.80548 30.1973 5.80548H29.1637C27.6586 5.80548 26.4341 7.09627 26.4341 8.68283C26.4341 10.2694 27.6586 11.5602 29.1637 11.5602ZM29.1637 7.38211H30.1973C30.6541 7.38211 30.7938 7.76791 30.8334 7.94134C30.8959 8.32194 31.221 8.57885 31.6073 8.57885H34.5696C34.7696 8.57885 34.9077 8.69505 34.9711 8.76308C35.0972 8.89898 35.1666 9.08298 35.1666 9.28116C35.1666 9.66846 34.8988 9.98347 34.5697 9.98347H29.1637C28.528 9.98347 28.0107 9.39996 28.0107 8.68275C28.0107 7.96554 28.5279 7.38211 29.1637 7.38211Z" fill="#FF5445"/>
<path d="M34.812 30.4797C35.2474 30.4797 35.6003 30.1268 35.6003 29.6914C35.6003 29.256 35.2474 28.9031 34.812 28.9031C34.3766 28.9031 34.0237 29.256 34.0237 29.6914C34.0237 30.1268 34.3766 30.4797 34.812 30.4797Z" fill="#FF5445"/>
<path d="M39.8286 38.6675C40.02 38.428 40.0547 38.0884 39.9144 37.8153L37.1737 32.4814C36.9747 32.0941 36.4993 31.9414 36.1122 32.1405C35.725 32.3395 35.5723 32.8147 35.7713 33.202L37.9219 37.3873H16.6739L23.4785 23.3437L26.2979 25.6434C26.4428 25.7616 26.6195 25.8209 26.7962 25.8209C26.9659 25.8209 27.1357 25.7663 27.2777 25.6567L30.4609 23.2011L32.4467 26.9467C32.6506 27.3314 33.1279 27.4779 33.5124 27.274C33.8971 27.07 34.0436 26.5929 33.8396 26.2082L27.5137 14.2759C27.3746 14.0135 27.0976 13.8521 26.8029 13.857C26.506 13.8624 26.2373 14.0342 26.1079 14.3015L18.0335 30.9656L10.6672 13.4617C10.5421 13.1644 10.2521 12.974 9.92599 12.9792C9.60349 12.9852 9.31717 13.187 9.20318 13.4888L5.9603 22.0712C5.94934 22.0963 5.93964 22.1217 5.93144 22.1475L0.0587407 37.69C-0.042873 37.9589 -0.0118923 38.2396 0.145771 38.4958C0.328738 38.7751 0.578713 38.9639 0.914377 38.9639H39.2116C39.4496 38.9639 39.6801 38.8533 39.8286 38.6675ZM26.849 16.3878L29.7118 21.7879L26.81 24.0264L24.1852 21.8854L26.849 16.3878ZM14.9933 37.2402C14.97 37.2882 14.9522 37.3375 14.9393 37.3873H1.85854L7.0339 23.6906L9.42809 25.6435C9.57298 25.7617 9.74956 25.8209 9.92638 25.8209C10.096 25.8209 10.2658 25.7664 10.4078 25.6568L13.1866 23.5132L17.118 32.8551L14.9933 37.2402ZM9.97999 15.8935L12.554 22.0099L9.94002 24.0264L7.62151 22.1353L9.97999 15.8935Z" fill="#FF5445"/>
</g>
<defs>
<clipPath id="clip0_41_398">
<rect width="40" height="40" fill="white"/>
</clipPath>
</defs>
</svg>
