<svg width="40" height="40" viewBox="0 0 40 40" fill="none" xmlns="http://www.w3.org/2000/svg">
<g clip-path="url(#clip0_41_140)">
<path d="M16.8303 26.2038C17.2799 26.2038 17.6445 25.8393 17.6445 25.3897C17.6445 24.94 17.2799 24.5755 16.8303 24.5755C16.3806 24.5755 16.0161 24.94 16.0161 25.3897C16.0161 25.8393 16.3806 26.2038 16.8303 26.2038Z" fill="#FF5445"/>
<path d="M30.3838 26.2038C30.8334 26.2038 31.1979 25.8393 31.1979 25.3897C31.1979 24.94 30.8334 24.5755 30.3838 24.5755C29.9341 24.5755 29.5696 24.94 29.5696 25.3897C29.5696 25.8393 29.9341 26.2038 30.3838 26.2038Z" fill="#FF5445"/>
<path d="M31.2071 0.814172C31.2071 0.364586 30.8426 0 30.3929 0C29.2753 0 27.0846 0.370692 25.9639 1.36537C24.9592 2.25705 24.3831 3.4998 24.3831 4.77495V18.6321C24.3831 18.8179 24.4466 18.9983 24.5633 19.143L26.2205 21.199V37.5067C26.2205 38.8815 27.339 40 28.7138 40C30.0886 40 31.2072 38.8815 31.2072 37.5067V28.9987C31.2072 28.5491 30.8427 28.1845 30.393 28.1845C29.9434 28.1845 29.5789 28.5491 29.5789 28.9987V37.5067C29.5789 37.9836 29.1908 38.3717 28.7138 38.3717C28.2369 38.3717 27.8488 37.9836 27.8488 37.5067V20.9117C27.8488 20.7259 27.7852 20.5455 27.6686 20.4009L26.0114 18.3448V4.77487C26.0114 3.95297 26.3783 3.17462 27.0447 2.5832C27.5326 2.15023 28.6156 1.81821 29.5788 1.6881V21.7522C29.5788 22.2018 29.9433 22.5664 30.3929 22.5664C30.8426 22.5664 31.2071 22.2018 31.2071 21.7522V0.814172Z" fill="#FF5445"/>
<path d="M16.8635 28.1845C16.4139 28.1845 16.0494 28.5491 16.0494 28.9987V37.475C16.0494 37.9492 15.6636 38.335 15.1893 38.335C14.7151 38.335 14.3293 37.9493 14.3293 37.475V14.4798C14.3293 14.0302 13.9648 13.6656 13.5152 13.6656C11.8092 13.6656 10.4213 12.2777 10.4213 10.5718V4.38406C10.4213 3.93447 10.0568 3.56989 9.60714 3.56989C9.15747 3.56989 8.79297 3.93447 8.79297 4.38406V10.5718C8.79297 12.8979 10.4839 14.8367 12.701 15.2238V37.4751C12.701 38.8472 13.8172 39.9634 15.1893 39.9634C16.5615 39.9634 17.6777 38.8472 17.6777 37.4751V28.9987C17.6777 28.549 17.3131 28.1845 16.8635 28.1845Z" fill="#FF5445"/>
<path d="M20.8055 3.56989C20.3558 3.56989 19.9913 3.93447 19.9913 4.38406V10.5718C19.9913 12.2777 18.5881 13.6656 16.8635 13.6656C16.4138 13.6656 16.0493 14.0302 16.0493 14.4798V21.7522C16.0493 22.2018 16.4138 22.5664 16.8635 22.5664C17.3132 22.5664 17.6777 22.2018 17.6777 21.7522V15.2247C19.9136 14.8401 21.6196 12.9 21.6196 10.5718V4.38406C21.6196 3.93439 21.255 3.56989 20.8055 3.56989Z" fill="#FF5445"/>
<path d="M12.872 11.6845C13.3217 11.6845 13.6862 11.3199 13.6862 10.8703V4.38406C13.6862 3.93447 13.3217 3.56989 12.872 3.56989C12.4224 3.56989 12.0579 3.93447 12.0579 4.38406V10.8703C12.0579 11.3199 12.4224 11.6845 12.872 11.6845Z" fill="#FF5445"/>
<path d="M17.5405 11.6845C17.9902 11.6845 18.3547 11.3199 18.3547 10.8703V4.38406C18.3547 3.93447 17.9902 3.56989 17.5405 3.56989C17.0908 3.56989 16.7263 3.93447 16.7263 4.38406V10.8703C16.7263 11.3199 17.0908 11.6845 17.5405 11.6845Z" fill="#FF5445"/>
</g>
<defs>
<clipPath id="clip0_41_140">
<rect width="40" height="40" fill="white"/>
</clipPath>
</defs>
</svg>
