<svg width="40" height="40" viewBox="0 0 40 40" fill="none" xmlns="http://www.w3.org/2000/svg">
<g clip-path="url(#clip0_41_466)">
<path d="M34.1421 5.85789C30.3647 2.08035 25.3422 0 20 0C14.6579 0 9.63535 2.08035 5.85789 5.85789C2.08035 9.63535 0 14.6578 0 20C0 25.3423 2.08035 30.3647 5.85789 34.1422C7.98576 36.2701 13.1804 40.0001 20 40.0001C25.4772 40.0001 28.7893 37.9913 29.7617 37.446C32.6437 35.8303 35.1078 33.5133 36.8874 30.7456C37.128 30.3714 37.0198 29.8731 36.6456 29.6325C36.2714 29.3919 35.7806 29.5051 35.5325 29.8744C32.2632 34.74 28.6881 36.1976 28.6881 36.1976C30.7256 32.5138 31.5318 27.3389 30.8078 21.9469C30.381 18.7649 29.4406 15.7127 28.0884 13.1201C26.8651 10.7748 25.333 8.85485 23.6356 7.52906C23.7081 7.12714 23.7147 6.71466 23.653 6.3108C27.6885 6.80866 32.3059 9.53289 35.9667 13.6369C36.6691 14.4238 37.9694 16.1577 37.9937 16.1839C38.2543 17.4251 38.3892 18.7022 38.3892 20.0001C38.3892 21.0601 38.2747 22.3074 38.0752 23.4224C37.9968 23.8603 38.2883 24.2787 38.7262 24.3571C39.1635 24.4352 39.5824 24.144 39.6609 23.7061C39.8764 22.5018 40.0001 21.151 40.0001 20C40 14.6578 37.9196 9.63535 34.1421 5.85789ZM22.0845 6.87116C22.0845 8.02055 21.1494 8.95562 20 8.95562C18.8506 8.95562 17.9156 8.02055 17.9156 6.87116C17.9156 5.72176 18.8506 4.7867 20 4.7867C21.1494 4.7867 22.0845 5.72176 22.0845 6.87116ZM14.0759 37.4174C12.7336 35.8968 11.7073 33.7504 11.1037 31.1896C10.4511 28.4211 10.3288 25.299 10.7503 22.1609C11.4951 16.6082 13.8643 11.684 17.0133 9.04349C17.5341 9.75754 18.3041 10.2782 19.1946 10.477V38.3708C17.4302 38.2953 15.7107 37.9718 14.0759 37.4174ZM6.99697 6.99697C10.2796 3.71431 14.585 1.82655 19.1946 1.62913V3.26518C18.3326 3.45761 17.5834 3.95152 17.064 4.63077C14.8497 4.73676 12.4155 5.47529 9.9999 6.77926C7.72382 8.00783 5.51371 9.71541 3.55483 11.7508C4.42771 10.0147 5.58298 8.41096 6.99697 6.99697ZM1.61093 20C1.61093 18.6842 1.74946 17.3899 2.0172 16.1327C2.02582 16.1217 3.29958 14.4237 4.0021 13.6366C7.67243 9.52202 12.3045 6.7944 16.3477 6.30701C16.2868 6.70306 16.2914 7.10748 16.3597 7.50216C14.6487 8.82876 13.1045 10.759 11.873 13.12C10.5207 15.7126 9.58041 18.7649 9.1536 21.9467C8.42973 27.3374 9.23543 32.511 11.2717 36.1946C9.71936 35.3552 8.27991 34.286 6.99697 33.003C3.52374 29.5298 1.61093 24.9119 1.61093 20ZM29.2112 22.1612C29.6326 25.2991 29.5104 28.4211 28.8578 31.1897C28.2547 33.7485 27.2294 35.8934 25.8888 37.4138C24.2497 37.9698 22.5363 38.2939 20.8055 38.3708V10.4771C21.6875 10.2801 22.4515 9.76776 22.9721 9.06419C26.109 11.7097 28.4682 16.6223 29.2112 22.1612ZM29.9688 6.77926C27.565 5.48166 25.1427 4.74369 22.9372 4.63205C22.4176 3.95224 21.6681 3.45777 20.8055 3.26526V1.62921C25.415 1.82655 29.7204 3.71431 33.0031 6.99705C34.4355 8.42949 35.6018 10.057 36.4787 11.8191C34.5036 9.75367 32.2701 8.02144 29.9688 6.77926Z" fill="#FF5445"/>
<path d="M37.8543 27.86C38.2991 27.86 38.6598 27.4994 38.6598 27.0545C38.6598 26.6097 38.2991 26.2491 37.8543 26.2491C37.4094 26.2491 37.0488 26.6097 37.0488 27.0545C37.0488 27.4994 37.4094 27.86 37.8543 27.86Z" fill="#FF5445"/>
</g>
<defs>
<clipPath id="clip0_41_466">
<rect width="40" height="40" fill="white"/>
</clipPath>
</defs>
</svg>
