<svg width="40" height="40" viewBox="0 0 40 40" fill="none" xmlns="http://www.w3.org/2000/svg">
<g clip-path="url(#clip0_41_236)">
<path d="M39.9922 37.3501C39.9776 37.2476 39.6211 34.8139 38.3501 32.3019C36.6098 28.8623 33.9953 26.9557 30.7892 26.7882C26.0552 26.5409 23.6839 28.4074 22.6973 29.5307C20.2744 27.3881 17.2186 25.0817 12.2784 24.9037L10.8606 20.2943L17.0206 18.3995C17.4319 18.273 17.6707 17.8231 17.5439 17.4111C17.1755 16.2135 16.4975 15.1328 15.5831 14.2858C15.2626 13.9891 14.7624 14.0081 14.4656 14.3286C14.1688 14.649 14.1878 15.1493 14.5083 15.4461C15.0251 15.9249 15.4449 16.5002 15.7457 17.137L3.53429 20.893C3.12364 18.2551 4.66937 15.5799 7.19265 14.8037L8.55294 14.3773C8.96968 14.2467 9.20161 13.803 9.07098 13.3863C8.94042 12.9695 8.49719 12.7378 8.0799 12.8681L6.72364 13.2933C4.98473 13.8281 3.5509 15.046 2.68618 16.7224C1.81807 18.4055 1.64568 20.3261 2.20065 22.1306C2.32709 22.5418 2.77688 22.7804 3.18896 22.6539L9.34894 20.7591L10.6337 24.9362C6.82787 25.2618 3.81351 27.4138 1.87556 31.2122C0.322715 34.2557 0.0159736 37.2584 0.00371662 37.3847C-0.0178715 37.6067 0.0552751 37.8275 0.205206 37.9926C0.355137 38.1578 0.567776 38.252 0.790775 38.252H39.2092C39.4383 38.252 39.6562 38.1526 39.8065 37.9796C39.9566 37.8066 40.0244 37.5768 39.9922 37.3501ZM1.70981 36.6705C1.90221 35.6233 2.34465 33.7727 3.28425 31.9311C5.03921 28.4915 7.67091 26.6634 11.111 26.4881L12.3694 30.5791C11.6332 30.9668 10.8475 31.5969 10.4613 32.3573C10.2431 32.7867 10.421 33.3343 10.8953 33.493C11.311 33.6321 11.6422 33.4134 11.8687 33.085C12.4437 32.2515 13.349 31.7144 14.3528 31.5902C14.9381 31.5179 15.5245 31.5821 16.0972 31.7096C16.6167 31.8252 17.1892 31.5991 17.1994 30.9841C17.2115 30.2497 16.4204 30.1386 15.8606 30.055C15.2004 29.9565 14.525 29.9501 13.8669 30.068L12.7739 26.5147C17.2307 26.8437 19.8971 29.1294 22.2345 31.2389C22.2676 31.275 25.7397 35.0471 28.9566 35.0471C29.3925 35.0471 29.7584 34.7185 29.7723 34.2821C29.7863 33.8456 29.4438 33.4804 29.0072 33.4664C27.108 33.4054 25.5821 32.1268 23.8699 30.5849C24.594 29.7469 26.5363 28.1498 30.7067 28.3675C33.3404 28.5051 35.4313 30.0573 36.9212 32.981C37.6366 34.3849 38.0402 35.7911 38.2457 36.6705H1.70981V36.6705Z" fill="#FF5445"/>
<path d="M11.8352 14.0709C12.2719 14.0709 12.626 13.7168 12.626 13.2801C12.626 12.8434 12.2719 12.4893 11.8352 12.4893C11.3985 12.4893 11.0444 12.8434 11.0444 13.2801C11.0444 13.7168 11.3985 14.0709 11.8352 14.0709Z" fill="#FF5445"/>
<path d="M21.8208 8.89495H24.8301C24.9664 9.63132 25.2465 10.6759 25.7837 11.2132C26.4919 11.9215 27.6285 12.3443 28.8239 12.3443H32.3824C34.6498 12.3443 36.4944 10.4997 36.4944 8.23228C36.4944 7.13381 36.0668 6.10114 35.2902 5.32452C34.5136 4.54798 33.4809 4.12025 32.3824 4.12025H32.0162C31.5161 2.72959 30.1728 1.74792 28.6507 1.74792H21.8208C20.8661 1.74792 19.9688 2.11943 19.2941 2.79404C18.6191 3.4692 18.2473 4.36673 18.2473 5.32136C18.2472 7.29189 19.8504 8.89495 21.8208 8.89495ZM20.4124 3.91243C20.7883 3.53658 21.2885 3.32955 21.8208 3.32955H28.6507C29.631 3.32955 30.4781 4.0592 30.6211 5.02671C30.6785 5.41459 31.0114 5.70188 31.4034 5.70188H32.3824C33.0584 5.70188 33.694 5.96505 34.1719 6.44291C34.6497 6.92078 34.9129 7.55632 34.9129 8.23236C34.9129 9.62768 33.7777 10.7628 32.3824 10.7628H28.8239C28.0504 10.7628 27.3139 10.5069 26.902 10.0949C26.6279 9.82079 26.3501 8.60513 26.2941 8.05127C26.2668 7.6426 25.9155 7.3134 25.505 7.3134H21.8208C20.7224 7.3134 19.8289 6.41982 19.8289 5.32144C19.8288 4.78924 20.036 4.28876 20.4124 3.91243Z" fill="#FF5445"/>
</g>
<defs>
<clipPath id="clip0_41_236">
<rect width="40" height="40" fill="white"/>
</clipPath>
</defs>
</svg>
