<svg width="20" height="20" viewBox="0 0 20 20" fill="none" xmlns="http://www.w3.org/2000/svg">
<mask id="mask0_113_4793" style="mask-type:alpha" maskUnits="userSpaceOnUse" x="0" y="0" width="20" height="20">
<rect width="20" height="20" fill="#D9D9D9"/>
</mask>
<g mask="url(#mask0_113_4793)">
<path d="M10 18.3333C8.95833 18.3333 7.98264 18.1354 7.07292 17.7396C6.16319 17.3438 5.37153 16.809 4.69792 16.1354C4.02431 15.4618 3.48958 14.6702 3.09375 13.7604C2.69792 12.8507 2.5 11.875 2.5 10.8333C2.5 9.79168 2.69792 8.81598 3.09375 7.90626C3.48958 6.99654 4.02431 6.20487 4.69792 5.53126C5.37153 4.85765 6.16319 4.32293 7.07292 3.92709C7.98264 3.53126 8.95833 3.33334 10 3.33334C11.0417 3.33334 12.0174 3.53126 12.9271 3.92709C13.8368 4.32293 14.6285 4.85765 15.3021 5.53126C15.9757 6.20487 16.5104 6.99654 16.9063 7.90626C17.3021 8.81598 17.5 9.79168 17.5 10.8333C17.5 11.875 17.3021 12.8507 16.9063 13.7604C16.5104 14.6702 15.9757 15.4618 15.3021 16.1354C14.6285 16.809 13.8368 17.3438 12.9271 17.7396C12.0174 18.1354 11.0417 18.3333 10 18.3333ZM12.3333 14.3333L13.5 13.1667L10.8333 10.5V6.66668H9.16667V11.1667L12.3333 14.3333ZM4.66667 1.95834L5.83333 3.12501L2.29167 6.66668L1.125 5.50001L4.66667 1.95834ZM15.3333 1.95834L18.875 5.50001L17.7083 6.66668L14.1667 3.12501L15.3333 1.95834ZM10 16.6667C11.625 16.6667 13.0035 16.1007 14.1354 14.9688C15.2674 13.8368 15.8333 12.4583 15.8333 10.8333C15.8333 9.20834 15.2674 7.82987 14.1354 6.69793C13.0035 5.56598 11.625 5.00001 10 5.00001C8.375 5.00001 6.99653 5.56598 5.86458 6.69793C4.73264 7.82987 4.16667 9.20834 4.16667 10.8333C4.16667 12.4583 4.73264 13.8368 5.86458 14.9688C6.99653 16.1007 8.375 16.6667 10 16.6667Z" fill="#1C1B1F"/>
</g>
</svg>
