<svg width="40" height="40" viewBox="0 0 40 40" fill="none" xmlns="http://www.w3.org/2000/svg">
<g clip-path="url(#clip0_41_229)">
<path d="M39.9568 25.2723C39.9388 23.9803 39.1514 22.8371 37.9506 22.3599L30.1507 19.2603C30.1488 19.2577 30.1468 19.2553 30.1449 19.2527L27.1465 11.6792H29.3754C29.8146 11.6792 30.1708 11.3231 30.1708 10.8838C30.1708 10.4446 29.8146 10.0885 29.3754 10.0885H27.6785V6.87995C27.6785 5.61884 26.6526 4.59283 25.3914 4.59283H16.3741C15.4054 4.59283 14.576 5.19842 14.2432 6.05072H7.41349C6.15222 6.05072 5.12605 7.07688 5.12605 8.33815V10.0884H3.97709C3.53781 10.0884 3.18173 10.4445 3.18173 10.8838C3.18173 11.323 3.53781 11.6791 3.97709 11.6791L6.45175 11.6794L3.0361 19.8549C1.34908 19.9311 0 21.3276 0 23.033V28.408C0 30.1623 1.42718 31.5894 3.18141 31.5894H3.79058C4.19088 33.7584 6.09487 35.4071 8.37794 35.4071C10.661 35.4071 12.5651 33.7584 12.9653 31.5894H15.377C15.8163 31.5894 16.1724 31.2334 16.1724 30.7941C16.1724 30.3548 15.8163 29.9987 15.377 29.9987H12.9843C12.6276 27.7775 10.6981 26.075 8.37794 26.075C6.05773 26.075 4.12828 27.7775 3.77157 29.9987H3.18141C2.3043 29.9987 1.59071 29.2851 1.59071 28.408V23.033C1.59071 22.1559 2.3043 21.4423 3.18141 21.4423C3.18141 21.4423 24.7365 21.4427 24.738 21.4424L29.1963 20.59C29.211 20.5969 37.3632 23.8381 37.3632 23.8381C37.9636 24.0767 38.3573 24.6483 38.3663 25.2943L38.4091 28.386C38.4151 28.815 38.2525 29.2195 37.9512 29.525C37.6499 29.8305 37.2476 29.9988 36.8186 29.9988H34.6179C34.2612 27.7775 32.3318 26.0751 30.0116 26.0751C27.6914 26.0751 25.762 27.7776 25.4053 29.9988H22.5883C22.1491 29.9988 21.7929 30.3549 21.7929 30.7942C21.7929 31.2334 22.1491 31.5895 22.5883 31.5895H25.4242C25.8245 33.7585 27.7285 35.4072 30.0116 35.4072C32.2946 35.4072 34.1986 33.7585 34.5989 31.5895H36.8185C37.6767 31.5895 38.4811 31.253 39.0837 30.642C39.6862 30.031 40.0115 29.222 39.9996 28.364L39.9568 25.2723ZM8.37794 27.6657C10.0737 27.6657 11.4533 29.0453 11.4533 30.7411C11.4533 32.4369 10.0737 33.8165 8.37794 33.8165C6.68216 33.8165 5.30254 32.4369 5.30254 30.7411C5.30262 29.0453 6.68224 27.6657 8.37794 27.6657ZM14.0869 10.0883H11.6082V7.64135H14.087L14.0869 10.0883ZM26.0878 6.87995V10.0883H21.7929V6.18354H25.3914C25.7754 6.18354 26.0878 6.49596 26.0878 6.87995ZM16.3741 6.18354H20.2022V10.0884H15.6776V6.87995C15.6776 6.49596 15.99 6.18354 16.3741 6.18354ZM6.71676 8.33807C6.71676 7.95384 7.02933 7.64135 7.41349 7.64135H10.0175V10.0883H6.71676V8.33807ZM4.74158 19.8991L8.15309 11.7334H16.0937V19.8991H9.20256H4.74158ZM17.6845 19.8991V11.7334H25.4572L28.3851 19.129L24.4976 19.8991H17.6845ZM30.0116 33.8164C28.3159 33.8164 26.9362 32.4368 26.9362 30.741C26.9362 29.0453 28.3159 27.6656 30.0116 27.6656C31.7073 27.6656 33.0869 29.0453 33.0869 30.741C33.0869 32.4369 31.7073 33.8164 30.0116 33.8164Z" fill="#FF5445"/>
<path d="M30.038 31.5894C30.4773 31.5894 30.8334 31.2333 30.8334 30.7941C30.8334 30.3548 30.4773 29.9987 30.038 29.9987C29.5988 29.9987 29.2427 30.3548 29.2427 30.7941C29.2427 31.2333 29.5988 31.5894 30.038 31.5894Z" fill="#FF5445"/>
<path d="M8.32489 31.5894C8.76416 31.5894 9.12025 31.2333 9.12025 30.7941C9.12025 30.3548 8.76416 29.9987 8.32489 29.9987C7.88563 29.9987 7.52954 30.3548 7.52954 30.7941C7.52954 31.2333 7.88563 31.5894 8.32489 31.5894Z" fill="#FF5445"/>
<path d="M18.996 31.6292C19.4353 31.6292 19.7914 31.2731 19.7914 30.8339C19.7914 30.3946 19.4353 30.0385 18.996 30.0385C18.5568 30.0385 18.2007 30.3946 18.2007 30.8339C18.2007 31.2731 18.5568 31.6292 18.996 31.6292Z" fill="#FF5445"/>
</g>
<defs>
<clipPath id="clip0_41_229">
<rect width="40" height="40" fill="white"/>
</clipPath>
</defs>
</svg>
