<svg width="40" height="40" viewBox="0 0 40 40" fill="none" xmlns="http://www.w3.org/2000/svg">
<path d="M36.8241 9.73785H23.5993C23.1608 9.73785 22.8053 10.0933 22.8053 10.5318C22.8053 10.9703 23.1608 11.3258 23.5993 11.3258H36.824C37.6996 11.3258 38.412 12.0381 38.412 12.9137V27.1258C38.412 28.0014 37.6996 28.7138 36.824 28.7138H3.17588C2.30029 28.7138 1.58794 28.0014 1.58794 27.1258V12.9137C1.58794 12.0381 2.30029 11.3258 3.17588 11.3258H16.3741C16.8126 11.3258 17.1681 10.9703 17.1681 10.5318C17.1681 10.0933 16.8126 9.73785 16.3741 9.73785H3.17588C1.4247 9.73785 0 11.1626 0 12.9137V27.1258C0 28.877 1.4247 30.3017 3.17588 30.3017H36.8241C38.5753 30.3017 40 28.877 40 27.1258V12.9137C40 11.1626 38.5753 9.73785 36.8241 9.73785Z" fill="#FF5445"/>
<path d="M9.00355 14.4819H5.15359C4.71516 14.4819 4.35962 14.8374 4.35962 15.2759C4.35962 15.7144 4.71516 16.0699 5.15359 16.0699H9.00355C9.44198 16.0699 9.79752 15.7144 9.79752 15.2759C9.79752 14.8374 9.44206 14.4819 9.00355 14.4819Z" fill="#FF5445"/>
<path d="M9.00355 17.618H5.15359C4.71516 17.618 4.35962 17.9735 4.35962 18.412C4.35962 18.8505 4.71516 19.206 5.15359 19.206H9.00355C9.44198 19.206 9.79752 18.8505 9.79752 18.412C9.79752 17.9735 9.44206 17.618 9.00355 17.618Z" fill="#FF5445"/>
<path d="M9.00355 20.7939H5.15359C4.71516 20.7939 4.35962 21.1494 4.35962 21.5879C4.35962 22.0264 4.71516 22.3819 5.15359 22.3819H9.00355C9.44198 22.3819 9.79752 22.0264 9.79752 21.5879C9.79752 21.1494 9.44206 20.7939 9.00355 20.7939Z" fill="#FF5445"/>
<path d="M9.00355 23.9697H5.15359C4.71516 23.9697 4.35962 24.3252 4.35962 24.7637C4.35962 25.2022 4.71516 25.5577 5.15359 25.5577H9.00355C9.44198 25.5577 9.79752 25.2022 9.79752 24.7637C9.79752 24.3252 9.44206 23.9697 9.00355 23.9697Z" fill="#FF5445"/>
<path d="M13.5212 20.0198C13.5212 23.5922 16.4276 26.4985 20 26.4985C23.5724 26.4985 26.4787 23.5922 26.4787 20.0198C26.4787 16.4474 23.5724 13.5411 20 13.5411C16.4276 13.5411 13.5212 16.4474 13.5212 20.0198ZM21.4613 20.0198C21.4613 23.1967 20.4241 24.9106 20 24.9106C19.5758 24.9106 18.5387 23.1967 18.5387 20.0198C18.5387 16.8429 19.5758 15.129 20 15.129C20.4241 15.129 21.4613 16.8429 21.4613 20.0198ZM15.1092 20.0198C15.1092 18.1687 16.1429 16.5548 17.6633 15.7243C17.1918 16.9228 16.9506 18.4757 16.9506 20.0198C16.9506 21.5639 17.1917 23.1168 17.6633 24.3153C16.1429 23.4848 15.1092 21.8709 15.1092 20.0198ZM24.8907 20.0198C24.8907 21.8709 23.8569 23.4848 22.3365 24.3153C22.8081 23.1168 23.0492 21.5639 23.0492 20.0198C23.0492 18.4757 22.8082 16.9228 22.3365 15.7243C23.8569 16.5548 24.8907 18.1688 24.8907 20.0198Z" fill="#FF5445"/>
<path d="M32.3726 16.7645C32.811 16.7645 33.1666 16.409 33.1666 15.9705V14.184C33.1666 13.7455 32.811 13.3901 32.3726 13.3901C31.9342 13.3901 31.5786 13.7455 31.5786 14.184V15.9705C31.5786 16.409 31.9342 16.7645 32.3726 16.7645Z" fill="#FF5445"/>
<path d="M31.5786 20.9131C31.5786 21.3516 31.9342 21.7071 32.3726 21.7071C32.811 21.7071 33.1666 21.3516 33.1666 20.9131V19.1267C33.1666 18.6882 32.811 18.3327 32.3726 18.3327C31.9342 18.3327 31.5786 18.6882 31.5786 19.1267V20.9131Z" fill="#FF5445"/>
<path d="M31.5786 25.8556C31.5786 26.2941 31.9342 26.6495 32.3726 26.6495C32.811 26.6495 33.1666 26.2941 33.1666 25.8556V24.0691C33.1666 23.6306 32.811 23.2751 32.3726 23.2751C31.9342 23.2751 31.5786 23.6306 31.5786 24.0691V25.8556Z" fill="#FF5445"/>
<path d="M20 11.2861C20.4385 11.2861 20.794 10.9306 20.794 10.4922C20.794 10.0537 20.4385 9.69818 20 9.69818C19.5615 9.69818 19.2061 10.0537 19.2061 10.4922C19.2061 10.9306 19.5615 11.2861 20 11.2861Z" fill="#FF5445"/>
</svg>
