<svg width="40" height="40" viewBox="0 0 40 40" fill="none" xmlns="http://www.w3.org/2000/svg">
<g clip-path="url(#clip0_41_150)">
<path d="M0.831085 21.7901H6.04219C6.47558 21.7901 6.82689 21.4387 6.82689 21.0054C6.82689 20.572 6.47558 20.2207 6.04219 20.2207H1.61578V18.6513H17.95V20.2207H13.2222C12.7888 20.2207 12.4375 20.572 12.4375 21.0054C12.4375 21.4387 12.7888 21.7901 13.2222 21.7901H18.7347C19.1681 21.7901 19.5194 21.4387 19.5194 21.0054V18.6513H21.285V21.0054C21.285 21.4326 21.6424 21.7901 22.0697 21.7901L39.2153 21.79C39.6486 21.79 40 21.4386 40 21.0053C40 16.4728 36.5787 12.7854 32.3735 12.7854H22.0697C21.6363 12.7854 21.285 13.1368 21.285 13.5701V17.0819H19.5194V13.5701C19.5194 13.1368 19.1681 12.7854 18.7347 12.7854H0.831085C0.397696 12.7854 0.0463867 13.1368 0.0463867 13.5701V21.0054C0.0463867 21.4387 0.397696 21.7901 0.831085 21.7901ZM37.2938 17.1316H33.9258C33.0998 17.1316 32.4277 16.4596 32.4277 15.6335V14.3562C34.4299 14.3757 36.2032 15.4665 37.2938 17.1316ZM22.8544 14.3548H30.8583V15.6335C30.8583 17.325 32.2343 18.701 33.9258 18.701H38.0551C38.218 19.1839 38.332 19.6928 38.3887 20.2207H22.8544V14.3548ZM17.95 17.0819H10.5215V14.3548H17.95V17.0819ZM8.95209 14.3548V17.0819H1.61578V14.3548H8.95209Z" fill="#FF5445"/>
<path d="M39.0387 24.4583H37.9598V24.0562C37.9598 23.6229 37.6084 23.2715 37.1751 23.2715C36.7418 23.2715 36.3904 23.6229 36.3904 24.0562V24.4583H34.821V24.0562C34.821 23.6229 34.4696 23.2715 34.0363 23.2715C33.603 23.2715 33.2516 23.6229 33.2516 24.0562V24.4583H31.6822V24.0562C31.6822 23.6229 31.3308 23.2715 30.8975 23.2715C30.4642 23.2715 30.1128 23.6229 30.1128 24.0562V24.4583H28.5434V24.0562C28.5434 23.6229 28.192 23.2715 27.7587 23.2715C27.3254 23.2715 26.974 23.6229 26.974 24.0562V24.4583H25.4046V24.0562C25.4046 23.6229 25.0532 23.2715 24.6199 23.2715C24.1866 23.2715 23.8352 23.6229 23.8352 24.0562V24.4583H22.2658V24.0562C22.2658 23.6229 21.9144 23.2715 21.4811 23.2715C21.0478 23.2715 20.6964 23.6229 20.6964 24.0562V24.4583H19.127V24.0562C19.127 23.6229 18.7757 23.2715 18.3423 23.2715C17.9089 23.2715 17.5576 23.6229 17.5576 24.0562V24.4583H15.9882V24.0562C15.9882 23.6229 15.6369 23.2715 15.2035 23.2715C14.7701 23.2715 14.4188 23.6229 14.4188 24.0562V24.4583H12.8494V24.0562C12.8494 23.6229 12.4981 23.2715 12.0647 23.2715C11.6313 23.2715 11.28 23.6229 11.28 24.0562V24.4583H9.71064V24.0562C9.71064 23.6229 9.35933 23.2715 8.92594 23.2715C8.49256 23.2715 8.14125 23.6229 8.14125 24.0562V24.4583H6.57185V24.0562C6.57185 23.6229 6.22054 23.2715 5.78715 23.2715C5.35376 23.2715 5.00245 23.6229 5.00245 24.0562V24.4583H3.43306V24.0562C3.43306 23.6229 3.08175 23.2715 2.64836 23.2715C2.21497 23.2715 1.86366 23.6229 1.86366 24.0562V24.4583H0.784698C0.35131 24.4583 0 24.8097 0 25.243C0 25.6763 0.35131 26.0277 0.784698 26.0277H1.86366V26.4299C1.86366 26.8632 2.21497 27.2146 2.64836 27.2146C3.08175 27.2146 3.43306 26.8632 3.43306 26.4299V26.0277H5.00245V26.4299C5.00245 26.8632 5.35376 27.2146 5.78715 27.2146C6.22054 27.2146 6.57185 26.8632 6.57185 26.4299V26.0277H8.14125V26.4299C8.14125 26.8632 8.49256 27.2146 8.92594 27.2146C9.35933 27.2146 9.71064 26.8632 9.71064 26.4299V26.0277H11.28V26.4299C11.28 26.8632 11.6313 27.2146 12.0647 27.2146C12.4981 27.2146 12.8494 26.8632 12.8494 26.4299V26.0277H14.4188V26.4299C14.4188 26.8632 14.7701 27.2146 15.2035 27.2146C15.6369 27.2146 15.9882 26.8632 15.9882 26.4299V26.0277H17.5576V26.4299C17.5576 26.8632 17.9089 27.2146 18.3423 27.2146C18.7757 27.2146 19.127 26.8632 19.127 26.4299V26.0277H20.6964V26.4299C20.6964 26.8632 21.0478 27.2146 21.4811 27.2146C21.9144 27.2146 22.2658 26.8632 22.2658 26.4299V26.0277H23.8352V26.4299C23.8352 26.8632 24.1866 27.2146 24.6199 27.2146C25.0532 27.2146 25.4046 26.8632 25.4046 26.4299V26.0277H26.974V26.4299C26.974 26.8632 27.3254 27.2146 27.7587 27.2146C28.192 27.2146 28.5434 26.8632 28.5434 26.4299V26.0277H30.1128V26.4299C30.1128 26.8632 30.4642 27.2146 30.8975 27.2146C31.3308 27.2146 31.6822 26.8632 31.6822 26.4299V26.0277H33.2516V26.4299C33.2516 26.8632 33.603 27.2146 34.0363 27.2146C34.4696 27.2146 34.821 26.8632 34.821 26.4299V26.0277H36.3904V26.4299C36.3904 26.8632 36.7418 27.2146 37.1751 27.2146C37.6084 27.2146 37.9598 26.8632 37.9598 26.4299V26.0277H39.0387C39.4721 26.0277 39.8234 25.6763 39.8234 25.243C39.8234 24.8097 39.4721 24.4583 39.0387 24.4583Z" fill="#FF5445"/>
<path d="M9.69095 21.8202C10.1243 21.8202 10.4756 21.4689 10.4756 21.0355C10.4756 20.6021 10.1243 20.2508 9.69095 20.2508C9.25757 20.2508 8.90625 20.6021 8.90625 21.0355C8.90625 21.4689 9.25757 21.8202 9.69095 21.8202Z" fill="#FF5445"/>
</g>
<defs>
<clipPath id="clip0_41_150">
<rect width="40" height="40" fill="white"/>
</clipPath>
</defs>
</svg>
