<svg width="51" height="20" viewBox="0 0 51 20" fill="none" xmlns="http://www.w3.org/2000/svg">
<g clip-path="url(#clip0_71_4)">
<path d="M30.8944 5.13995C30.3478 6.87023 29.7295 8.57977 29.1075 10.2837C28.806 11.1092 28.1368 11.473 27.4602 11.505C25.9674 11.5107 24.9722 10.3949 25.3303 9.12072C25.8392 7.31505 26.465 5.53953 27.1322 3.78475C27.5054 2.80275 28.6759 2.41447 29.6654 2.78767C30.6173 3.14767 31.2054 4.15606 30.8962 5.13806L30.8944 5.13995ZM47.6882 5.23419C47.1643 6.9362 46.5837 8.62124 45.9599 10.2874C45.6639 11.0828 45.008 11.505 44.386 11.5069C42.7368 11.4918 41.7868 10.2893 42.2034 8.94732C42.7217 7.27547 43.3041 5.62247 43.9205 3.98643C44.337 2.88191 45.3963 2.40505 46.416 2.75751C47.4621 3.1194 48.0313 4.12214 47.6882 5.23419ZM0.86514 9.58251C2.79521 8.35925 4.70267 7.04552 6.80049 5.66016C6.48195 6.59881 6.24635 7.24531 6.04279 7.90123C5.23608 10.5136 6.51588 12.9469 9.12449 13.7819C11.4918 14.5396 14.1118 13.1976 14.9618 10.7907C15.1692 10.2026 15.3671 9.61266 15.5876 8.96805C15.8986 9.00952 16.1719 9.02271 16.4377 9.08302C17.4442 9.30921 18.3715 9.11507 19.2253 8.56281C20.6182 7.66186 22.0017 6.74583 23.5605 5.72425C23.4304 6.16718 23.3588 6.44614 23.2664 6.71567C22.0356 10.3063 20.8011 13.895 19.5665 17.4837C19.525 17.6025 19.4779 17.7193 19.4402 17.8381C19.0972 18.8917 19.3328 19.5966 20.1225 19.8831C20.8934 20.1621 21.5927 19.7361 21.947 18.7334C22.5313 17.0785 23.0968 15.4161 23.6717 13.7574C23.7734 13.4634 23.8884 13.1731 24.0317 12.7905C25.6847 14.0307 27.4206 14.4209 29.3281 13.5595C31.2676 12.6831 31.8311 10.8717 32.3985 9.00198C32.6774 9.04156 32.9168 9.06418 33.1486 9.11318C34.2154 9.33748 35.205 9.16596 36.1191 8.56846C37.5026 7.66186 38.8842 6.75337 40.4542 5.72048C39.5118 8.46103 38.6373 11.0018 37.7646 13.5425C37.2651 14.9958 36.76 16.4471 36.2661 17.9022C35.9193 18.9256 36.1813 19.6438 36.9824 19.9171C37.7872 20.1941 38.3998 19.8134 38.7786 18.7447C39.4722 16.7958 40.1414 14.8374 40.8444 12.8131C42.5163 14.0628 44.2692 14.4718 46.2275 13.5633C48.167 12.6623 48.6439 10.8077 49.2715 8.92281L50.1291 6.4763C50.2234 6.03336 50.3647 5.58854 50.4081 5.13241C50.5815 3.2683 49.8596 1.80756 48.2744 0.83498C46.6026 -0.190371 44.8761 -0.207334 43.208 0.861368C41.3854 2.02808 39.5929 3.24192 37.7891 4.43879C36.9013 5.02874 36.0418 5.66959 35.1202 6.19734C34.6339 6.4763 34.0439 6.57619 33.4992 6.7496L33.2579 6.49326C33.8856 4.74602 33.7838 3.10809 32.5379 1.68504C30.9283 -0.154559 28.3555 -0.474981 26.2237 0.916028C23.6227 2.61238 21.0499 4.35208 18.4601 6.06352C17.889 6.44048 17.3085 6.85703 16.4452 6.45179C16.956 4.95712 17.463 3.45867 17.9813 1.96588C18.2377 1.22891 18.1717 0.588067 17.4272 0.184712C16.6224 -0.250686 15.8213 0.124397 15.4557 1.14786C14.6885 3.30412 13.9591 5.47545 13.2127 7.63924C12.9564 8.37998 12.7038 9.12261 12.4324 9.85769C11.9631 11.1337 10.9189 11.7124 9.80303 11.3298C8.64952 10.9339 8.18208 9.80115 8.64198 8.46668C9.33748 6.44991 10.0443 4.43879 10.7455 2.4239C10.8284 2.18641 10.917 1.9508 10.9735 1.70577C11.145 0.963149 10.9264 0.373195 10.1857 0.111203C9.46565 -0.14325 8.79088 0.103664 8.54396 0.801053C8.21789 1.72085 7.51484 2.16191 6.78164 2.64442C4.44256 4.1768 2.75186 5.46225 0.47121 6.9852C0.286496 7.1096 0.163981 7.30939 0.143248 7.5318L0.00188523 9.05664C-0.041466 9.52219 0.469325 9.83319 0.863256 9.58251H0.86514Z" fill="#EE0F14"/>
</g>
<defs>
<clipPath id="clip0_71_4">
<rect width="50.4307" height="20" fill="white"/>
</clipPath>
</defs>
</svg>
