<svg width="24" height="24" viewBox="0 0 24 24" fill="none" xmlns="http://www.w3.org/2000/svg">
<path d="M22.65 21.1742L15.6937 14.2179C16.7732 12.8224 17.3571 11.1161 17.3571 9.32148C17.3571 7.17327 16.5187 5.15898 15.0027 3.64023C13.4866 2.12148 11.467 1.28577 9.32142 1.28577C7.17588 1.28577 5.15624 2.12416 3.64017 3.64023C2.12142 5.1563 1.28571 7.17327 1.28571 9.32148C1.28571 11.467 2.1241 13.4867 3.64017 15.0027C5.15624 16.5215 7.17321 17.3572 9.32142 17.3572C11.1161 17.3572 12.8196 16.7733 14.2152 15.6965L21.1714 22.6501C21.1918 22.6705 21.216 22.6867 21.2427 22.6977C21.2694 22.7087 21.2979 22.7144 21.3268 22.7144C21.3556 22.7144 21.3842 22.7087 21.4109 22.6977C21.4375 22.6867 21.4617 22.6705 21.4821 22.6501L22.65 21.4849C22.6704 21.4645 22.6866 21.4403 22.6976 21.4136C22.7087 21.3869 22.7144 21.3584 22.7144 21.3295C22.7144 21.3007 22.7087 21.2721 22.6976 21.2454C22.6866 21.2188 22.6704 21.1946 22.65 21.1742ZM13.5643 13.5643C12.4286 14.6974 10.9232 15.3215 9.32142 15.3215C7.71963 15.3215 6.21428 14.6974 5.07856 13.5643C3.94553 12.4286 3.32142 10.9233 3.32142 9.32148C3.32142 7.7197 3.94553 6.21166 5.07856 5.07862C6.21428 3.94559 7.71963 3.32148 9.32142 3.32148C10.9232 3.32148 12.4312 3.94291 13.5643 5.07862C14.6973 6.21434 15.3214 7.7197 15.3214 9.32148C15.3214 10.9233 14.6973 12.4313 13.5643 13.5643Z" fill="#3C3C3C"/>
</svg>
